<mxfile host="app.diagrams.net" modified="2023-09-22T12:59:09.622Z" agent="Mozilla/5.0 (X11; Linux x86_64) AppleWebKit/537.36 (KHTML, like Gecko) Chrome/116.0.0.0 Safari/537.36" etag="3LExRu_WsXxn8CcuvJ6a" version="21.7.5" type="github">
  <diagram name="Page-1" id="uvDzyVtkvnyqVdNpsSEz">
    <mxGraphModel dx="1364" dy="803" grid="1" gridSize="10" guides="1" tooltips="1" connect="1" arrows="1" fold="1" page="1" pageScale="1" pageWidth="850" pageHeight="1100" math="0" shadow="0">
      <root>
        <mxCell id="0" />
        <mxCell id="1" parent="0" />
        <mxCell id="ZMCGh3uslOaLDGoOaYo7-4" value="" style="edgeStyle=orthogonalEdgeStyle;rounded=0;orthogonalLoop=1;jettySize=auto;html=1;" edge="1" parent="1" source="ZMCGh3uslOaLDGoOaYo7-1" target="ZMCGh3uslOaLDGoOaYo7-2">
          <mxGeometry relative="1" as="geometry" />
        </mxCell>
        <mxCell id="ZMCGh3uslOaLDGoOaYo7-1" value="User" style="rounded=1;whiteSpace=wrap;html=1;" vertex="1" parent="1">
          <mxGeometry x="80" y="280" width="120" height="60" as="geometry" />
        </mxCell>
        <mxCell id="ZMCGh3uslOaLDGoOaYo7-5" value="" style="edgeStyle=orthogonalEdgeStyle;rounded=0;orthogonalLoop=1;jettySize=auto;html=1;" edge="1" parent="1" source="ZMCGh3uslOaLDGoOaYo7-2" target="ZMCGh3uslOaLDGoOaYo7-3">
          <mxGeometry relative="1" as="geometry" />
        </mxCell>
        <mxCell id="ZMCGh3uslOaLDGoOaYo7-7" value="" style="edgeStyle=orthogonalEdgeStyle;rounded=0;orthogonalLoop=1;jettySize=auto;html=1;" edge="1" parent="1" source="ZMCGh3uslOaLDGoOaYo7-2" target="ZMCGh3uslOaLDGoOaYo7-6">
          <mxGeometry relative="1" as="geometry" />
        </mxCell>
        <mxCell id="ZMCGh3uslOaLDGoOaYo7-2" value="Browser" style="rounded=1;whiteSpace=wrap;html=1;" vertex="1" parent="1">
          <mxGeometry x="240" y="280" width="120" height="60" as="geometry" />
        </mxCell>
        <mxCell id="ZMCGh3uslOaLDGoOaYo7-3" value="Wallet" style="ellipse;whiteSpace=wrap;html=1;" vertex="1" parent="1">
          <mxGeometry x="240" y="160" width="120" height="80" as="geometry" />
        </mxCell>
        <mxCell id="ZMCGh3uslOaLDGoOaYo7-9" value="" style="edgeStyle=orthogonalEdgeStyle;rounded=0;orthogonalLoop=1;jettySize=auto;html=1;" edge="1" parent="1" source="ZMCGh3uslOaLDGoOaYo7-6" target="ZMCGh3uslOaLDGoOaYo7-8">
          <mxGeometry relative="1" as="geometry" />
        </mxCell>
        <mxCell id="ZMCGh3uslOaLDGoOaYo7-12" value="" style="edgeStyle=orthogonalEdgeStyle;rounded=0;orthogonalLoop=1;jettySize=auto;html=1;" edge="1" parent="1" source="ZMCGh3uslOaLDGoOaYo7-6" target="ZMCGh3uslOaLDGoOaYo7-11">
          <mxGeometry relative="1" as="geometry" />
        </mxCell>
        <mxCell id="ZMCGh3uslOaLDGoOaYo7-6" value="Website" style="whiteSpace=wrap;html=1;rounded=1;" vertex="1" parent="1">
          <mxGeometry x="410" y="280" width="120" height="60" as="geometry" />
        </mxCell>
        <mxCell id="ZMCGh3uslOaLDGoOaYo7-10" style="edgeStyle=orthogonalEdgeStyle;rounded=0;orthogonalLoop=1;jettySize=auto;html=1;entryX=0.75;entryY=0;entryDx=0;entryDy=0;" edge="1" parent="1" source="ZMCGh3uslOaLDGoOaYo7-8" target="ZMCGh3uslOaLDGoOaYo7-6">
          <mxGeometry relative="1" as="geometry">
            <Array as="points">
              <mxPoint x="490" y="255" />
              <mxPoint x="500" y="255" />
            </Array>
          </mxGeometry>
        </mxCell>
        <mxCell id="ZMCGh3uslOaLDGoOaYo7-8" value="Image Generator" style="whiteSpace=wrap;html=1;rounded=1;" vertex="1" parent="1">
          <mxGeometry x="380" y="170" width="120" height="60" as="geometry" />
        </mxCell>
        <mxCell id="ZMCGh3uslOaLDGoOaYo7-13" value="" style="edgeStyle=orthogonalEdgeStyle;rounded=0;orthogonalLoop=1;jettySize=auto;html=1;entryX=1;entryY=0.75;entryDx=0;entryDy=0;exitX=0;exitY=0.75;exitDx=0;exitDy=0;" edge="1" parent="1" source="ZMCGh3uslOaLDGoOaYo7-11" target="ZMCGh3uslOaLDGoOaYo7-6">
          <mxGeometry relative="1" as="geometry" />
        </mxCell>
        <mxCell id="ZMCGh3uslOaLDGoOaYo7-11" value="IPFS" style="whiteSpace=wrap;html=1;rounded=1;" vertex="1" parent="1">
          <mxGeometry x="600" y="280" width="120" height="60" as="geometry" />
        </mxCell>
      </root>
    </mxGraphModel>
  </diagram>
</mxfile>
